<svg xmlns="http://www.w3.org/2000/svg" viewBox="0 0 416.4 416.4"><path d="M328.14 12.16l-.44-.56a39.36 39.36 0 00-28-11.6H116.46C94.683.066 77.046 17.703 76.98 39.48V376.8a39.402 39.402 0 0011.6 28 39.402 39.402 0 0028 11.6h183.24a39.398 39.398 0 0028-11.56 39.402 39.402 0 0011.6-28V39.52a39.362 39.362 0 00-11.28-27.36zM324.1 376.8a24.202 24.202 0 01-7.12 17.16 24.202 24.202 0 01-17.16 7.12H116.46a24.2 24.2 0 01-17.16-7.12 24.241 24.241 0 01-7.16-17.16V39.52c.044-13.413 10.907-24.276 24.32-24.32h183.36a24.241 24.241 0 0117.16 7.16l.36.32a24.202 24.202 0 016.8 16.84l-.04 337.28z"/><circle cx="208.14" cy="378.84" r="10.68"/><path d="M305.86 47.64h-.08a33.281 33.281 0 00-23.56-9.8h-148a33.28 33.28 0 00-23.52 9.8 33.283 33.283 0 00-9.8 23.56v251.36a33.281 33.281 0 009.8 23.56 33.283 33.283 0 0023.56 9.8h148a33.282 33.282 0 0023.12-9.36l.48-.44a33.281 33.281 0 009.8-23.56V71.16a33.278 33.278 0 00-9.8-23.52zM295.02 335.4l-.32.36a18.077 18.077 0 01-12.52 5h-148a18.082 18.082 0 01-12.84-5.32 18.121 18.121 0 01-5.36-12.84V71.16a18.082 18.082 0 015.32-12.84A18.082 18.082 0 01134.14 53h148a18.082 18.082 0 0112.84 5.32 18.082 18.082 0 015.32 12.84l.08 251.4a18.121 18.121 0 01-5.36 12.84z"/></svg>