<svg height="512pt" viewBox="-68 0 512 512" width="512pt" xmlns="http://www.w3.org/2000/svg"><path d="M187.645 0C84.175 0 0 84.176 0 187.645c0 47.53 29.95 114.687 89.02 199.605 43.175 62.074 85.64 110.11 87.43 112.125L187.644 512l11.199-12.625c1.785-2.016 44.25-50.05 87.43-112.125 59.066-84.918 89.019-152.074 89.019-199.605C375.293 84.175 291.113 0 187.645 0zm74.218 369.914c-29.183 41.984-58.68 78.117-74.218 96.55-15.5-18.382-44.887-54.378-74.051-96.308-54.73-78.68-83.66-141.793-83.66-182.511 0-86.961 70.75-157.711 157.71-157.711 86.965 0 157.711 70.75 157.711 157.71 0 40.676-28.87 103.704-83.492 182.27zm0 0"/><path d="M187.645 69.352c-61.067 0-110.747 49.68-110.747 110.746s49.68 110.75 110.747 110.75c61.07 0 110.75-49.684 110.75-110.75s-49.68-110.746-110.75-110.746zm0 191.562c-44.56 0-80.813-36.254-80.813-80.816 0-44.559 36.254-80.813 80.813-80.813 44.562 0 80.816 36.254 80.816 80.813 0 44.562-36.254 80.816-80.816 80.816zm0 0"/></svg>