<svg xmlns="http://www.w3.org/2000/svg" viewBox="0 0 512 512"><path d="M432.701 317.247l-82.913-97.484 73.645-42.016c7.196-4.104 9.701-13.266 5.597-20.461-4.105-7.196-13.269-9.702-20.462-5.597L256.001 238.73l-152.567-87.041c-7.196-4.104-16.355-1.601-20.462 5.597-4.104 7.195-1.6 16.356 5.597 20.461l73.645 42.016L79.3 317.247c-5.367 6.311-4.603 15.776 1.708 21.144 6.31 5.369 15.78 4.601 21.144-1.708l86.577-101.792 59.839 34.139a15.002 15.002 0 0014.865 0l59.839-34.139 86.577 101.792c5.368 6.313 14.838 7.073 21.144 1.708 6.311-5.367 7.075-14.833 1.708-21.144z"/><path d="M467 81H45c-24.813 0-45 20.187-45 45v260c0 24.813 20.187 45 45 45h422c24.813 0 45-20.187 45-45V126c0-24.813-20.187-45-45-45zm15 305c0 8.271-6.729 15-15 15H45c-8.271 0-15-6.729-15-15V126c0-8.271 6.729-15 15-15h422c8.271 0 15 6.729 15 15v260z"/></svg>